<svg xmlns="http://www.w3.org/2000/svg" viewBox="0 0 32.85 44.79"><g id="레이어_2" data-name="레이어 2"><g id="Layer_1" data-name="Layer 1"><path d="M16.42,44.79a1.51,1.51,0,0,1-1.24-.66L3.24,26.21A16.25,16.25,0,0,1,0,16.42a16.43,16.43,0,1,1,29.56,9.86L17.67,44.13A1.52,1.52,0,0,1,16.42,44.79Zm0-41.8A13.45,13.45,0,0,0,5.67,24.49L16.42,40.61,27.13,24.55A13.44,13.44,0,0,0,16.42,3Z"/><path d="M16.42,26.88A10.46,10.46,0,1,1,26.88,16.42,10.47,10.47,0,0,1,16.42,26.88ZM16.42,9a7.47,7.47,0,1,0,7.47,7.46A7.47,7.47,0,0,0,16.42,9Z"/></g></g></svg>