<svg xmlns="http://www.w3.org/2000/svg" viewBox="0 0 38.82 41.81"><g id="레이어_2" data-name="레이어 2"><g id="Layer_1" data-name="Layer 1"><path d="M34.34,41.81H4.48A4.49,4.49,0,0,1,0,37.33V7.47A4.49,4.49,0,0,1,4.48,3H34.34a4.49,4.49,0,0,1,4.48,4.48V37.33A4.49,4.49,0,0,1,34.34,41.81ZM4.48,6A1.5,1.5,0,0,0,3,7.47V37.33a1.49,1.49,0,0,0,1.49,1.49H34.34a1.49,1.49,0,0,0,1.49-1.49V7.47A1.5,1.5,0,0,0,34.34,6Z"/><path d="M37.33,17.92H1.49a1.5,1.5,0,0,1,0-3H37.33a1.5,1.5,0,0,1,0,3Z"/><path d="M7.47,9A1.5,1.5,0,0,1,6,7.47v-6a1.5,1.5,0,0,1,3,0v6A1.49,1.49,0,0,1,7.47,9Z"/><path d="M19.41,9a1.49,1.49,0,0,1-1.49-1.49v-6a1.49,1.49,0,0,1,3,0v6A1.49,1.49,0,0,1,19.41,9Z"/><path d="M31.35,9a1.49,1.49,0,0,1-1.49-1.49v-6a1.5,1.5,0,0,1,3,0v6A1.5,1.5,0,0,1,31.35,9Z"/></g></g></svg>