<svg xmlns="http://www.w3.org/2000/svg" viewBox="0 0 44.79 39.54"><g id="레이어_2" data-name="레이어 2"><g id="Layer_1" data-name="Layer 1"><path d="M22.4,7.05a1.49,1.49,0,0,1-1.06-.44,1.64,1.64,0,0,1-.29-.4A1.49,1.49,0,0,1,21.3,4.5a1.55,1.55,0,0,1,2.18,0,1.53,1.53,0,0,1,0,2.13A1.49,1.49,0,0,1,22.4,7.05Z"/><path d="M22.4,39.54a4.47,4.47,0,0,1-3.17-1.31L4.45,23.45l-.09-.1c-.14-.13-.29-.26-.43-.41A13.45,13.45,0,0,1,22.4,3.41a13.43,13.43,0,0,1,22.39,10,13.32,13.32,0,0,1-3.93,9.5h0c-.14.15-.29.28-.43.41l-.09.1L25.56,38.23A4.47,4.47,0,0,1,22.4,39.54Zm-15.66-18,14.6,14.6a1.5,1.5,0,0,0,2.11,0L38.06,21.51a1.67,1.67,0,0,1,.25-.28,5.31,5.31,0,0,0,.44-.4A10.46,10.46,0,0,0,24,6q-.18.18-.33.36a1.24,1.24,0,0,1-.18.21,1.5,1.5,0,0,1-2.11,0,1.24,1.24,0,0,1-.18-.22c-.12-.14-.22-.24-.33-.35A10.46,10.46,0,0,0,6,20.83a5.31,5.31,0,0,0,.44.4A1.42,1.42,0,0,1,6.74,21.52Z"/></g></g></svg>