<svg xmlns="http://www.w3.org/2000/svg" viewBox="0 0 32.85 44.79">
    <g id="레이어_2" data-name="레이어 2">
        <g id="Layer_1" data-name="Layer 1">
            <path style="fill:rgb(255,255,255);fill-rule:nonzero;" d="M31.35,44.79a1.52,1.52,0,0,1-.55-.1L16.42,38.94,2.05,44.69a1.52,1.52,0,0,1-1.39-.15A1.5,1.5,0,0,1,0,43.3V4.48A4.49,4.49,0,0,1,4.48,0H28.37a4.49,4.49,0,0,1,4.48,4.48V43.3a1.5,1.5,0,0,1-.66,1.24A1.56,1.56,0,0,1,31.35,44.79Zm-14.93-9a1.55,1.55,0,0,1,.56.11l12.88,5.15V4.48A1.49,1.49,0,0,0,28.37,3H4.48A1.49,1.49,0,0,0,3,4.48V41.09l12.88-5.15A1.54,1.54,0,0,1,16.42,35.83Z"/>
        </g>
    </g>
</svg>